<svg xmlns="http://www.w3.org/2000/svg" width="20" height="22" viewBox="0 0 20 22"><path fill="#fff" d="M19.8 18.5v1.25c0 .7-.56 1.25-1.24 1.25H1.24C.55 21 0 20.44 0 19.75V2.25C0 1.55.55 1 1.24 1h17.32c.68 0 1.24.56 1.24 1.25V18.5zm-9.9-10C7.62 8.5 7.42 11 7.42 11s-.07 2.5 2.48 2.5 2.47-2.5 2.47-2.5-.19-2.5-2.47-2.5zm7.42-5h-3.71v3.75h3.71zm0 7.5V9.75h-2.65A4.98 4.98 0 0 1 9.9 16a4.97 4.97 0 0 1-4.78-6.25H2.47v8.75h14.85z"/><path fill="#fff" d="M19.8 18.5v1.25c0 .7-.56 1.25-1.24 1.25H1.24C.55 21 0 20.44 0 19.75V2.25C0 1.55.55 1 1.24 1h17.32c.68 0 1.24.56 1.24 1.25V18.5zm-9.9-10C7.62 8.5 7.42 11 7.42 11s-.07 2.5 2.48 2.5 2.47-2.5 2.47-2.5-.19-2.5-2.47-2.5zm7.42-5h-3.71v3.75h3.71zm0 7.5V9.75h-2.65A4.98 4.98 0 0 1 9.9 16a4.97 4.97 0 0 1-4.78-6.25H2.47v8.75h14.85z"/></svg>